<svg width="80" height="80" viewBox="0 0 80 80" fill="none" xmlns="http://www.w3.org/2000/svg">
	<rect width="80" height="80" rx="12" fill="#2D8CFF"></rect>
	<path fill-rule="evenodd" clip-rule="evenodd" d="M24.0312 28.7H44.1875C47.1437 28.7 49.5625 31.13 49.5625 34.1V36.8V42.2V48.95C49.5625 49.706 48.9713 50.3 48.2188 50.3H28.0625C25.1062 50.3 22.6875 47.87 22.6875 44.9V30.05C22.6875 29.294 23.2787 28.7 24.0312 28.7ZM52.25 44.9V48.95C52.25 51.191 50.4494 53 48.2188 53H28.0625C23.6013 53 20 49.382 20 44.9V30.05C20 27.809 21.8006 26 24.0312 26H44.1875C48.6488 26 52.25 29.618 52.25 34.1L59.775 28.43C61.0919 27.431 63 28.376 63 30.05V48.95C63 50.624 61.0919 51.569 59.775 50.57L52.25 44.9ZM52.25 41.525L60.3125 47.6V31.4L52.25 37.475V41.525Z" fill="white"></path>
</svg>